# xmcd
#
# Track frame offsets:
#	150
#	14198
#	23258
#	33958
#	42977
#	54147
#	63951
#	74212
#	81197
#	95570
#	105531
#	114268
#
# Disc length: 1637 seconds
# Revision: 0
# Processed by: cddbd v1.5.2PL0 Copyright (c) Steve Scherf et al.
# Submitted via: dBpowerAMP V12.0
#
DISCID=9506630c
DTITLE=Chet Atkins - The Other Chet Atkins
DYEAR=1900
DGENRE=
TTITLE0=Begin the Beguine
TTITLE1=Sabrosa
TTITLE2=Yours
TTITLE3=Siboney
TTITLE4=The Streets of Laredo
TTITLE5=Delicado
TTITLE6=Peanut Vendor
TTITLE7=El Relicario
TTITLE8=Maria Elena
TTITLE9=Marcheta
TTITLE10=Tzena, Tzena
TTITLE11=Poinciana
EXTD=
EXTT0=
EXTT1=
EXTT2=
EXTT3=
EXTT4=
EXTT5=
EXTT6=
EXTT7=
EXTT8=
EXTT9=
EXTT10=
EXTT11=
PLAYORDER=
